<?xml version="1.0" encoding="UTF-8" standalone="no"?>
<!DOCTYPE svg PUBLIC "-//W3C//DTD SVG 1.1//EN"
 "http://www.w3.org/Graphics/SVG/1.1/DTD/svg11.dtd">
<!-- Generated by graphviz version 2.47.1 (20210421.1823)
 -->
<!-- Title: G Pages: 1 -->
<svg width="833pt" height="745pt"
 viewBox="0.00 0.00 833.00 745.00" xmlns="http://www.w3.org/2000/svg" xmlns:xlink="http://www.w3.org/1999/xlink">
<g id="graph0" class="graph" transform="scale(1 1) rotate(0) translate(72 673)">
<title>G</title>
<polygon fill="#111111" stroke="transparent" points="-72,72 -72,-673 761,-673 761,72 -72,72"/>
<!-- docs/assets/expandConfig.ts -->
<g id="node1" class="node">
<title>docs/assets/expandConfig.ts</title>
<path fill="none" stroke="#cfffac" d="M209.17,-61C209.17,-61 41.83,-61 41.83,-61 38.17,-61 34.5,-57.33 34.5,-53.67 34.5,-53.67 34.5,-46.33 34.5,-46.33 34.5,-42.67 38.17,-39 41.83,-39 41.83,-39 209.17,-39 209.17,-39 212.83,-39 216.5,-42.67 216.5,-46.33 216.5,-46.33 216.5,-53.67 216.5,-53.67 216.5,-57.33 212.83,-61 209.17,-61"/>
<text text-anchor="middle" x="125.5" y="-46.6" font-family="system-ui, -apple-system, sans-serif" font-size="13.00" fill="#cfffac">docs/assets/expandConfig.ts</text>
</g>
<!-- docs/assets/l10n.implementation.js -->
<g id="node2" class="node">
<title>docs/assets/l10n.implementation.js</title>
<path fill="none" stroke="#cfffac" d="M229.67,-101C229.67,-101 21.33,-101 21.33,-101 17.67,-101 14,-97.33 14,-93.67 14,-93.67 14,-86.33 14,-86.33 14,-82.67 17.67,-79 21.33,-79 21.33,-79 229.67,-79 229.67,-79 233.33,-79 237,-82.67 237,-86.33 237,-86.33 237,-93.67 237,-93.67 237,-97.33 233.33,-101 229.67,-101"/>
<text text-anchor="middle" x="125.5" y="-86.6" font-family="system-ui, -apple-system, sans-serif" font-size="13.00" fill="#cfffac">docs/assets/l10n.implementation.js</text>
</g>
<!-- docs/assets/selectors.implementation.ts -->
<g id="node3" class="node">
<title>docs/assets/selectors.implementation.ts</title>
<path fill="none" stroke="#cfffac" d="M243.67,-141C243.67,-141 7.33,-141 7.33,-141 3.67,-141 0,-137.33 0,-133.67 0,-133.67 0,-126.33 0,-126.33 0,-122.67 3.67,-119 7.33,-119 7.33,-119 243.67,-119 243.67,-119 247.33,-119 251,-122.67 251,-126.33 251,-126.33 251,-133.67 251,-133.67 251,-137.33 247.33,-141 243.67,-141"/>
<text text-anchor="middle" x="125.5" y="-126.6" font-family="system-ui, -apple-system, sans-serif" font-size="13.00" fill="#cfffac">docs/assets/selectors.implementation.ts</text>
</g>
<!-- preview/index.tsx -->
<g id="node4" class="node">
<title>preview/index.tsx</title>
<path fill="none" stroke="#c6c5fe" d="M177.67,-181C177.67,-181 73.33,-181 73.33,-181 69.67,-181 66,-177.33 66,-173.67 66,-173.67 66,-166.33 66,-166.33 66,-162.67 69.67,-159 73.33,-159 73.33,-159 177.67,-159 177.67,-159 181.33,-159 185,-162.67 185,-166.33 185,-166.33 185,-173.67 185,-173.67 185,-177.33 181.33,-181 177.67,-181"/>
<text text-anchor="middle" x="125.5" y="-166.6" font-family="system-ui, -apple-system, sans-serif" font-size="13.00" fill="#c6c5fe">preview/index.tsx</text>
</g>
<!-- react -->
<g id="node5" class="node">
<title>react</title>
<path fill="none" stroke="gray" d="M418.67,-260C418.67,-260 379.33,-260 379.33,-260 375.67,-260 372,-256.33 372,-252.67 372,-252.67 372,-245.33 372,-245.33 372,-241.67 375.67,-238 379.33,-238 379.33,-238 418.67,-238 418.67,-238 422.33,-238 426,-241.67 426,-245.33 426,-245.33 426,-252.67 426,-252.67 426,-256.33 422.33,-260 418.67,-260"/>
<text text-anchor="middle" x="399" y="-245.6" font-family="system-ui, -apple-system, sans-serif" font-size="13.00" fill="gray">react</text>
</g>
<!-- preview/index.tsx&#45;&gt;react -->
<g id="edge1" class="edge">
<title>preview/index.tsx&#45;&gt;react</title>
<path fill="none" stroke="#757575" d="M185.04,-176.67C206.06,-179.78 229.8,-184.12 251,-190 291.71,-201.29 336.5,-220.28 365.81,-233.66"/>
<polygon fill="#757575" stroke="#757575" points="364.58,-236.95 375.13,-237.96 367.52,-230.59 364.58,-236.95"/>
</g>
<!-- react&#45;dom -->
<g id="node6" class="node">
<title>react&#45;dom</title>
<path fill="none" stroke="gray" d="M430.17,-182C430.17,-182 367.83,-182 367.83,-182 364.17,-182 360.5,-178.33 360.5,-174.67 360.5,-174.67 360.5,-167.33 360.5,-167.33 360.5,-163.67 364.17,-160 367.83,-160 367.83,-160 430.17,-160 430.17,-160 433.83,-160 437.5,-163.67 437.5,-167.33 437.5,-167.33 437.5,-174.67 437.5,-174.67 437.5,-178.33 433.83,-182 430.17,-182"/>
<text text-anchor="middle" x="399" y="-167.6" font-family="system-ui, -apple-system, sans-serif" font-size="13.00" fill="gray">react&#45;dom</text>
</g>
<!-- preview/index.tsx&#45;&gt;react&#45;dom -->
<g id="edge2" class="edge">
<title>preview/index.tsx&#45;&gt;react&#45;dom</title>
<path fill="none" stroke="#757575" d="M185.08,-170.22C234.5,-170.4 304.35,-170.66 350.38,-170.82"/>
<polygon fill="#757575" stroke="#757575" points="350.39,-174.32 360.4,-170.86 350.41,-167.32 350.39,-174.32"/>
</g>
<!-- src/index.ts -->
<g id="node7" class="node">
<title>src/index.ts</title>
<path fill="none" stroke="#c6c5fe" d="M433.67,-142C433.67,-142 364.33,-142 364.33,-142 360.67,-142 357,-138.33 357,-134.67 357,-134.67 357,-127.33 357,-127.33 357,-123.67 360.67,-120 364.33,-120 364.33,-120 433.67,-120 433.67,-120 437.33,-120 441,-123.67 441,-127.33 441,-127.33 441,-134.67 441,-134.67 441,-138.33 437.33,-142 433.67,-142"/>
<text text-anchor="middle" x="399" y="-127.6" font-family="system-ui, -apple-system, sans-serif" font-size="13.00" fill="#c6c5fe">src/index.ts</text>
</g>
<!-- preview/index.tsx&#45;&gt;src/index.ts -->
<g id="edge3" class="edge">
<title>preview/index.tsx&#45;&gt;src/index.ts</title>
<path fill="none" stroke="#757575" d="M185.08,-161.59C233.19,-154.67 300.68,-144.98 346.69,-138.37"/>
<polygon fill="#757575" stroke="#757575" points="347.34,-141.81 356.74,-136.93 346.35,-134.88 347.34,-141.81"/>
</g>
<!-- src/App.tsx -->
<g id="node9" class="node">
<title>src/App.tsx</title>
<path fill="none" stroke="#cfffac" d="M652.17,-202C652.17,-202 583.83,-202 583.83,-202 580.17,-202 576.5,-198.33 576.5,-194.67 576.5,-194.67 576.5,-187.33 576.5,-187.33 576.5,-183.67 580.17,-180 583.83,-180 583.83,-180 652.17,-180 652.17,-180 655.83,-180 659.5,-183.67 659.5,-187.33 659.5,-187.33 659.5,-194.67 659.5,-194.67 659.5,-198.33 655.83,-202 652.17,-202"/>
<text text-anchor="middle" x="618" y="-187.6" font-family="system-ui, -apple-system, sans-serif" font-size="13.00" fill="#cfffac">src/App.tsx</text>
</g>
<!-- src/index.ts&#45;&gt;src/App.tsx -->
<g id="edge15" class="edge">
<title>src/index.ts&#45;&gt;src/App.tsx</title>
<path fill="none" stroke="#757575" d="M441.26,-136.6C462.33,-139.92 488.26,-144.72 511,-151 535.28,-157.71 561.79,-167.71 582.22,-176.04"/>
<polygon fill="#757575" stroke="#757575" points="581.15,-179.38 591.73,-179.97 583.83,-172.91 581.15,-179.38"/>
</g>
<!-- src/Nav.tsx -->
<g id="node22" class="node">
<title>src/Nav.tsx</title>
<path fill="none" stroke="#cfffac" d="M651.67,-142C651.67,-142 584.33,-142 584.33,-142 580.67,-142 577,-138.33 577,-134.67 577,-134.67 577,-127.33 577,-127.33 577,-123.67 580.67,-120 584.33,-120 584.33,-120 651.67,-120 651.67,-120 655.33,-120 659,-123.67 659,-127.33 659,-127.33 659,-134.67 659,-134.67 659,-138.33 655.33,-142 651.67,-142"/>
<text text-anchor="middle" x="618" y="-127.6" font-family="system-ui, -apple-system, sans-serif" font-size="13.00" fill="#cfffac">src/Nav.tsx</text>
</g>
<!-- src/index.ts&#45;&gt;src/Nav.tsx -->
<g id="edge16" class="edge">
<title>src/index.ts&#45;&gt;src/Nav.tsx</title>
<path fill="none" stroke="#757575" d="M441.07,-131C476.67,-131 528.33,-131 566.46,-131"/>
<polygon fill="#757575" stroke="#757575" points="566.83,-134.5 576.83,-131 566.83,-127.5 566.83,-134.5"/>
</g>
<!-- public/index.tsx -->
<g id="node8" class="node">
<title>public/index.tsx</title>
<path fill="none" stroke="#c6c5fe" d="M172.17,-221C172.17,-221 78.83,-221 78.83,-221 75.17,-221 71.5,-217.33 71.5,-213.67 71.5,-213.67 71.5,-206.33 71.5,-206.33 71.5,-202.67 75.17,-199 78.83,-199 78.83,-199 172.17,-199 172.17,-199 175.83,-199 179.5,-202.67 179.5,-206.33 179.5,-206.33 179.5,-213.67 179.5,-213.67 179.5,-217.33 175.83,-221 172.17,-221"/>
<text text-anchor="middle" x="125.5" y="-206.6" font-family="system-ui, -apple-system, sans-serif" font-size="13.00" fill="#c6c5fe">public/index.tsx</text>
</g>
<!-- public/index.tsx&#45;&gt;react -->
<g id="edge4" class="edge">
<title>public/index.tsx&#45;&gt;react</title>
<path fill="none" stroke="#757575" d="M179.82,-217.66C233.65,-225.39 315.34,-237.13 361.98,-243.83"/>
<polygon fill="#757575" stroke="#757575" points="361.54,-247.3 371.93,-245.26 362.53,-240.37 361.54,-247.3"/>
</g>
<!-- public/index.tsx&#45;&gt;react&#45;dom -->
<g id="edge5" class="edge">
<title>public/index.tsx&#45;&gt;react&#45;dom</title>
<path fill="none" stroke="#757575" d="M179.82,-202.34C229.31,-195.23 302.33,-184.74 350.03,-177.89"/>
<polygon fill="#757575" stroke="#757575" points="350.7,-181.33 360.1,-176.44 349.71,-174.4 350.7,-181.33"/>
</g>
<!-- public/index.tsx&#45;&gt;src/App.tsx -->
<g id="edge6" class="edge">
<title>public/index.tsx&#45;&gt;src/App.tsx</title>
<path fill="none" stroke="#757575" d="M179.93,-207.93C275.18,-204.24 473.06,-196.58 566.31,-192.96"/>
<polygon fill="#757575" stroke="#757575" points="566.48,-196.46 576.34,-192.57 566.21,-189.46 566.48,-196.46"/>
</g>
<!-- share/catalogue.spec.ts -->
<g id="node10" class="node">
<title>share/catalogue.spec.ts</title>
<path fill="none" stroke="#cfffac" d="M194.67,-341C194.67,-341 56.33,-341 56.33,-341 52.67,-341 49,-337.33 49,-333.67 49,-333.67 49,-326.33 49,-326.33 49,-322.67 52.67,-319 56.33,-319 56.33,-319 194.67,-319 194.67,-319 198.33,-319 202,-322.67 202,-326.33 202,-326.33 202,-333.67 202,-333.67 202,-337.33 198.33,-341 194.67,-341"/>
<text text-anchor="middle" x="125.5" y="-326.6" font-family="system-ui, -apple-system, sans-serif" font-size="13.00" fill="#cfffac">share/catalogue.spec.ts</text>
</g>
<!-- share/catalogue.ts -->
<g id="node11" class="node">
<title>share/catalogue.ts</title>
<path fill="none" stroke="#cfffac" d="M179.67,-381C179.67,-381 71.33,-381 71.33,-381 67.67,-381 64,-377.33 64,-373.67 64,-373.67 64,-366.33 64,-366.33 64,-362.67 67.67,-359 71.33,-359 71.33,-359 179.67,-359 179.67,-359 183.33,-359 187,-362.67 187,-366.33 187,-366.33 187,-373.67 187,-373.67 187,-377.33 183.33,-381 179.67,-381"/>
<text text-anchor="middle" x="125.5" y="-366.6" font-family="system-ui, -apple-system, sans-serif" font-size="13.00" fill="#cfffac">share/catalogue.ts</text>
</g>
<!-- share/config.spec.tsx -->
<g id="node12" class="node">
<title>share/config.spec.tsx</title>
<path fill="none" stroke="#cfffac" d="M188.17,-421C188.17,-421 62.83,-421 62.83,-421 59.17,-421 55.5,-417.33 55.5,-413.67 55.5,-413.67 55.5,-406.33 55.5,-406.33 55.5,-402.67 59.17,-399 62.83,-399 62.83,-399 188.17,-399 188.17,-399 191.83,-399 195.5,-402.67 195.5,-406.33 195.5,-406.33 195.5,-413.67 195.5,-413.67 195.5,-417.33 191.83,-421 188.17,-421"/>
<text text-anchor="middle" x="125.5" y="-406.6" font-family="system-ui, -apple-system, sans-serif" font-size="13.00" fill="#cfffac">share/config.spec.tsx</text>
</g>
<!-- share/config.ts -->
<g id="node13" class="node">
<title>share/config.ts</title>
<path fill="none" stroke="#cfffac" d="M169.67,-461C169.67,-461 81.33,-461 81.33,-461 77.67,-461 74,-457.33 74,-453.67 74,-453.67 74,-446.33 74,-446.33 74,-442.67 77.67,-439 81.33,-439 81.33,-439 169.67,-439 169.67,-439 173.33,-439 177,-442.67 177,-446.33 177,-446.33 177,-453.67 177,-453.67 177,-457.33 173.33,-461 169.67,-461"/>
<text text-anchor="middle" x="125.5" y="-446.6" font-family="system-ui, -apple-system, sans-serif" font-size="13.00" fill="#cfffac">share/config.ts</text>
</g>
<!-- snowpack.config.js -->
<g id="node14" class="node">
<title>snowpack.config.js</title>
<path fill="none" stroke="#c6c5fe" d="M181.17,-501C181.17,-501 69.83,-501 69.83,-501 66.17,-501 62.5,-497.33 62.5,-493.67 62.5,-493.67 62.5,-486.33 62.5,-486.33 62.5,-482.67 66.17,-479 69.83,-479 69.83,-479 181.17,-479 181.17,-479 184.83,-479 188.5,-482.67 188.5,-486.33 188.5,-486.33 188.5,-493.67 188.5,-493.67 188.5,-497.33 184.83,-501 181.17,-501"/>
<text text-anchor="middle" x="125.5" y="-486.6" font-family="system-ui, -apple-system, sans-serif" font-size="13.00" fill="#c6c5fe">snowpack.config.js</text>
</g>
<!-- @snowpack/plugin&#45;postcss -->
<g id="node15" class="node">
<title>@snowpack/plugin&#45;postcss</title>
<path fill="none" stroke="gray" d="M478.17,-521C478.17,-521 319.83,-521 319.83,-521 316.17,-521 312.5,-517.33 312.5,-513.67 312.5,-513.67 312.5,-506.33 312.5,-506.33 312.5,-502.67 316.17,-499 319.83,-499 319.83,-499 478.17,-499 478.17,-499 481.83,-499 485.5,-502.67 485.5,-506.33 485.5,-506.33 485.5,-513.67 485.5,-513.67 485.5,-517.33 481.83,-521 478.17,-521"/>
<text text-anchor="middle" x="399" y="-506.6" font-family="system-ui, -apple-system, sans-serif" font-size="13.00" fill="gray">@snowpack/plugin&#45;postcss</text>
</g>
<!-- snowpack.config.js&#45;&gt;@snowpack/plugin&#45;postcss -->
<g id="edge7" class="edge">
<title>snowpack.config.js&#45;&gt;@snowpack/plugin&#45;postcss</title>
<path fill="none" stroke="#757575" d="M188.79,-494.59C222.42,-497.07 264.65,-500.18 302.35,-502.95"/>
<polygon fill="#757575" stroke="#757575" points="302.11,-506.45 312.34,-503.69 302.63,-499.46 302.11,-506.45"/>
</g>
<!-- @snowpack/plugin&#45;react&#45;refresh -->
<g id="node16" class="node">
<title>@snowpack/plugin&#45;react&#45;refresh</title>
<path fill="none" stroke="gray" d="M494.67,-481C494.67,-481 303.33,-481 303.33,-481 299.67,-481 296,-477.33 296,-473.67 296,-473.67 296,-466.33 296,-466.33 296,-462.67 299.67,-459 303.33,-459 303.33,-459 494.67,-459 494.67,-459 498.33,-459 502,-462.67 502,-466.33 502,-466.33 502,-473.67 502,-473.67 502,-477.33 498.33,-481 494.67,-481"/>
<text text-anchor="middle" x="399" y="-466.6" font-family="system-ui, -apple-system, sans-serif" font-size="13.00" fill="gray">@snowpack/plugin&#45;react&#45;refresh</text>
</g>
<!-- snowpack.config.js&#45;&gt;@snowpack/plugin&#45;react&#45;refresh -->
<g id="edge8" class="edge">
<title>snowpack.config.js&#45;&gt;@snowpack/plugin&#45;react&#45;refresh</title>
<path fill="none" stroke="#757575" d="M188.79,-485.41C217.52,-483.3 252.53,-480.72 285.63,-478.28"/>
<polygon fill="#757575" stroke="#757575" points="286.12,-481.75 295.83,-477.53 285.6,-474.77 286.12,-481.75"/>
</g>
<!-- src/LocaleProvider.tsx -->
<g id="node17" class="node">
<title>src/LocaleProvider.tsx</title>
<path fill="none" stroke="#c6c5fe" d="M190.67,-301C190.67,-301 60.33,-301 60.33,-301 56.67,-301 53,-297.33 53,-293.67 53,-293.67 53,-286.33 53,-286.33 53,-282.67 56.67,-279 60.33,-279 60.33,-279 190.67,-279 190.67,-279 194.33,-279 198,-282.67 198,-286.33 198,-286.33 198,-293.67 198,-293.67 198,-297.33 194.33,-301 190.67,-301"/>
<text text-anchor="middle" x="125.5" y="-286.6" font-family="system-ui, -apple-system, sans-serif" font-size="13.00" fill="#c6c5fe">src/LocaleProvider.tsx</text>
</g>
<!-- src/LocaleProvider.tsx&#45;&gt;react -->
<g id="edge9" class="edge">
<title>src/LocaleProvider.tsx&#45;&gt;react</title>
<path fill="none" stroke="#757575" d="M198.19,-279.17C250.91,-271.21 320.35,-260.73 361.95,-254.44"/>
<polygon fill="#757575" stroke="#757575" points="362.53,-257.9 371.9,-252.94 361.49,-250.97 362.53,-257.9"/>
</g>
<!-- src/Nav.test.tsx -->
<g id="node18" class="node">
<title>src/Nav.test.tsx</title>
<path fill="none" stroke="#c6c5fe" d="M445.17,-62C445.17,-62 352.83,-62 352.83,-62 349.17,-62 345.5,-58.33 345.5,-54.67 345.5,-54.67 345.5,-47.33 345.5,-47.33 345.5,-43.67 349.17,-40 352.83,-40 352.83,-40 445.17,-40 445.17,-40 448.83,-40 452.5,-43.67 452.5,-47.33 452.5,-47.33 452.5,-54.67 452.5,-54.67 452.5,-58.33 448.83,-62 445.17,-62"/>
<text text-anchor="middle" x="399" y="-47.6" font-family="system-ui, -apple-system, sans-serif" font-size="13.00" fill="#c6c5fe">src/Nav.test.tsx</text>
</g>
<!-- @esm&#45;bundle/chai -->
<g id="node19" class="node">
<title>@esm&#45;bundle/chai</title>
<path fill="none" stroke="gray" d="M673.17,-102C673.17,-102 562.83,-102 562.83,-102 559.17,-102 555.5,-98.33 555.5,-94.67 555.5,-94.67 555.5,-87.33 555.5,-87.33 555.5,-83.67 559.17,-80 562.83,-80 562.83,-80 673.17,-80 673.17,-80 676.83,-80 680.5,-83.67 680.5,-87.33 680.5,-87.33 680.5,-94.67 680.5,-94.67 680.5,-98.33 676.83,-102 673.17,-102"/>
<text text-anchor="middle" x="618" y="-87.6" font-family="system-ui, -apple-system, sans-serif" font-size="13.00" fill="gray">@esm&#45;bundle/chai</text>
</g>
<!-- src/Nav.test.tsx&#45;&gt;@esm&#45;bundle/chai -->
<g id="edge10" class="edge">
<title>src/Nav.test.tsx&#45;&gt;@esm&#45;bundle/chai</title>
<path fill="none" stroke="#757575" d="M452.53,-60.37C471.02,-63.7 491.94,-67.48 511,-71 523.28,-73.26 536.35,-75.71 548.97,-78.08"/>
<polygon fill="#757575" stroke="#757575" points="548.5,-81.55 558.98,-79.96 549.8,-74.67 548.5,-81.55"/>
</g>
<!-- @testing&#45;library/react -->
<g id="node20" class="node">
<title>@testing&#45;library/react</title>
<path fill="none" stroke="gray" d="M681.67,-62C681.67,-62 554.33,-62 554.33,-62 550.67,-62 547,-58.33 547,-54.67 547,-54.67 547,-47.33 547,-47.33 547,-43.67 550.67,-40 554.33,-40 554.33,-40 681.67,-40 681.67,-40 685.33,-40 689,-43.67 689,-47.33 689,-47.33 689,-54.67 689,-54.67 689,-58.33 685.33,-62 681.67,-62"/>
<text text-anchor="middle" x="618" y="-47.6" font-family="system-ui, -apple-system, sans-serif" font-size="13.00" fill="gray">@testing&#45;library/react</text>
</g>
<!-- src/Nav.test.tsx&#45;&gt;@testing&#45;library/react -->
<g id="edge11" class="edge">
<title>src/Nav.test.tsx&#45;&gt;@testing&#45;library/react</title>
<path fill="none" stroke="#757575" d="M452.53,-51C477.78,-51 508.59,-51 536.7,-51"/>
<polygon fill="#757575" stroke="#757575" points="536.91,-54.5 546.91,-51 536.91,-47.5 536.91,-54.5"/>
</g>
<!-- sinon -->
<g id="node21" class="node">
<title>sinon</title>
<path fill="none" stroke="gray" d="M637.67,-22C637.67,-22 598.33,-22 598.33,-22 594.67,-22 591,-18.33 591,-14.67 591,-14.67 591,-7.33 591,-7.33 591,-3.67 594.67,0 598.33,0 598.33,0 637.67,0 637.67,0 641.33,0 645,-3.67 645,-7.33 645,-7.33 645,-14.67 645,-14.67 645,-18.33 641.33,-22 637.67,-22"/>
<text text-anchor="middle" x="618" y="-7.6" font-family="system-ui, -apple-system, sans-serif" font-size="13.00" fill="gray">sinon</text>
</g>
<!-- src/Nav.test.tsx&#45;&gt;sinon -->
<g id="edge12" class="edge">
<title>src/Nav.test.tsx&#45;&gt;sinon</title>
<path fill="none" stroke="#757575" d="M452.53,-41.32C492.2,-34 545.62,-24.16 580.67,-17.7"/>
<polygon fill="#757575" stroke="#757575" points="581.72,-21.06 590.92,-15.81 580.45,-14.18 581.72,-21.06"/>
</g>
<!-- src/Nav.test.tsx&#45;&gt;src/Nav.tsx -->
<g id="edge13" class="edge">
<title>src/Nav.test.tsx&#45;&gt;src/Nav.tsx</title>
<path fill="none" stroke="#757575" d="M452.67,-53.38C471.97,-56.03 493.38,-61.19 511,-71 531.9,-82.64 526.71,-98.33 547,-111 553.19,-114.87 560.15,-118.01 567.22,-120.55"/>
<polygon fill="#757575" stroke="#757575" points="566.27,-123.92 576.86,-123.66 568.42,-117.26 566.27,-123.92"/>
</g>
<!-- src/Selector.tsx -->
<g id="node23" class="node">
<title>src/Selector.tsx</title>
<path fill="none" stroke="#c6c5fe" d="M171.17,-261C171.17,-261 79.83,-261 79.83,-261 76.17,-261 72.5,-257.33 72.5,-253.67 72.5,-253.67 72.5,-246.33 72.5,-246.33 72.5,-242.67 76.17,-239 79.83,-239 79.83,-239 171.17,-239 171.17,-239 174.83,-239 178.5,-242.67 178.5,-246.33 178.5,-246.33 178.5,-253.67 178.5,-253.67 178.5,-257.33 174.83,-261 171.17,-261"/>
<text text-anchor="middle" x="125.5" y="-246.6" font-family="system-ui, -apple-system, sans-serif" font-size="13.00" fill="#c6c5fe">src/Selector.tsx</text>
</g>
<!-- src/Selector.tsx&#45;&gt;react -->
<g id="edge14" class="edge">
<title>src/Selector.tsx&#45;&gt;react</title>
<path fill="none" stroke="#757575" d="M178.53,-249.81C232.21,-249.61 314.54,-249.31 361.62,-249.13"/>
<polygon fill="#757575" stroke="#757575" points="361.68,-252.63 371.67,-249.1 361.66,-245.63 361.68,-252.63"/>
</g>
<!-- test/foo.test.tsx -->
<g id="node24" class="node">
<title>test/foo.test.tsx</title>
<path fill="none" stroke="#c6c5fe" d="M446.17,-102C446.17,-102 351.83,-102 351.83,-102 348.17,-102 344.5,-98.33 344.5,-94.67 344.5,-94.67 344.5,-87.33 344.5,-87.33 344.5,-83.67 348.17,-80 351.83,-80 351.83,-80 446.17,-80 446.17,-80 449.83,-80 453.5,-83.67 453.5,-87.33 453.5,-87.33 453.5,-94.67 453.5,-94.67 453.5,-98.33 449.83,-102 446.17,-102"/>
<text text-anchor="middle" x="399" y="-87.6" font-family="system-ui, -apple-system, sans-serif" font-size="13.00" fill="#c6c5fe">test/foo.test.tsx</text>
</g>
<!-- test/foo.test.tsx&#45;&gt;@esm&#45;bundle/chai -->
<g id="edge17" class="edge">
<title>test/foo.test.tsx&#45;&gt;@esm&#45;bundle/chai</title>
<path fill="none" stroke="#757575" d="M453.64,-91C481.15,-91 515.04,-91 544.81,-91"/>
<polygon fill="#757575" stroke="#757575" points="545.15,-94.5 555.15,-91 545.15,-87.5 545.15,-94.5"/>
</g>
<!-- test/foo.test.tsx&#45;&gt;@testing&#45;library/react -->
<g id="edge18" class="edge">
<title>test/foo.test.tsx&#45;&gt;@testing&#45;library/react</title>
<path fill="none" stroke="#757575" d="M453.65,-81.42C471.86,-78.15 492.32,-74.44 511,-71 523.28,-68.74 536.35,-66.29 548.97,-63.92"/>
<polygon fill="#757575" stroke="#757575" points="549.8,-67.33 558.98,-62.04 548.5,-60.45 549.8,-67.33"/>
</g>
<!-- test/foo.test.tsx&#45;&gt;src/Nav.tsx -->
<g id="edge19" class="edge">
<title>test/foo.test.tsx&#45;&gt;src/Nav.tsx</title>
<path fill="none" stroke="#757575" d="M453.65,-100.58C471.86,-103.85 492.32,-107.56 511,-111 529.24,-114.36 549.24,-118.12 566.9,-121.46"/>
<polygon fill="#757575" stroke="#757575" points="566.52,-124.95 577,-123.37 567.82,-118.07 566.52,-124.95"/>
</g>
<!-- web&#45;test&#45;runner.config.js -->
<g id="node25" class="node">
<title>web&#45;test&#45;runner.config.js</title>
<path fill="none" stroke="#c6c5fe" d="M199.67,-581C199.67,-581 51.33,-581 51.33,-581 47.67,-581 44,-577.33 44,-573.67 44,-573.67 44,-566.33 44,-566.33 44,-562.67 47.67,-559 51.33,-559 51.33,-559 199.67,-559 199.67,-559 203.33,-559 207,-562.67 207,-566.33 207,-566.33 207,-573.67 207,-573.67 207,-577.33 203.33,-581 199.67,-581"/>
<text text-anchor="middle" x="125.5" y="-566.6" font-family="system-ui, -apple-system, sans-serif" font-size="13.00" fill="#c6c5fe">web&#45;test&#45;runner.config.js</text>
</g>
<!-- @snowpack/web&#45;test&#45;runner&#45;plugin -->
<g id="node26" class="node">
<title>@snowpack/web&#45;test&#45;runner&#45;plugin</title>
<path fill="none" stroke="gray" d="M503.67,-601C503.67,-601 294.33,-601 294.33,-601 290.67,-601 287,-597.33 287,-593.67 287,-593.67 287,-586.33 287,-586.33 287,-582.67 290.67,-579 294.33,-579 294.33,-579 503.67,-579 503.67,-579 507.33,-579 511,-582.67 511,-586.33 511,-586.33 511,-593.67 511,-593.67 511,-597.33 507.33,-601 503.67,-601"/>
<text text-anchor="middle" x="399" y="-586.6" font-family="system-ui, -apple-system, sans-serif" font-size="13.00" fill="gray">@snowpack/web&#45;test&#45;runner&#45;plugin</text>
</g>
<!-- web&#45;test&#45;runner.config.js&#45;&gt;@snowpack/web&#45;test&#45;runner&#45;plugin -->
<g id="edge20" class="edge">
<title>web&#45;test&#45;runner.config.js&#45;&gt;@snowpack/web&#45;test&#45;runner&#45;plugin</title>
<path fill="none" stroke="#757575" d="M207.22,-575.95C229.11,-577.56 253.29,-579.34 276.87,-581.08"/>
<polygon fill="#757575" stroke="#757575" points="276.7,-584.57 286.93,-581.82 277.22,-577.59 276.7,-584.57"/>
</g>
<!-- @web/test&#45;runner&#45;playwright -->
<g id="node27" class="node">
<title>@web/test&#45;runner&#45;playwright</title>
<path fill="none" stroke="gray" d="M485.17,-561C485.17,-561 312.83,-561 312.83,-561 309.17,-561 305.5,-557.33 305.5,-553.67 305.5,-553.67 305.5,-546.33 305.5,-546.33 305.5,-542.67 309.17,-539 312.83,-539 312.83,-539 485.17,-539 485.17,-539 488.83,-539 492.5,-542.67 492.5,-546.33 492.5,-546.33 492.5,-553.67 492.5,-553.67 492.5,-557.33 488.83,-561 485.17,-561"/>
<text text-anchor="middle" x="399" y="-546.6" font-family="system-ui, -apple-system, sans-serif" font-size="13.00" fill="gray">@web/test&#45;runner&#45;playwright</text>
</g>
<!-- web&#45;test&#45;runner.config.js&#45;&gt;@web/test&#45;runner&#45;playwright -->
<g id="edge21" class="edge">
<title>web&#45;test&#45;runner.config.js&#45;&gt;@web/test&#45;runner&#45;playwright</title>
<path fill="none" stroke="#757575" d="M207.22,-564.05C234.77,-562.02 265.95,-559.73 295.01,-557.59"/>
<polygon fill="#757575" stroke="#757575" points="295.47,-561.06 305.19,-556.84 294.96,-554.08 295.47,-561.06"/>
</g>
</g>
</svg>
